<?xml version="1.0" encoding="UTF-8" standalone="no"?>
<svg
   height="48"
   width="48"
   version="1.1"
   id="svg85"
   xmlns="http://www.w3.org/2000/svg"
   xmlns:svg="http://www.w3.org/2000/svg">
  <defs
     id="defs89" />
  <path
     d="M 11,44 Q 9.75,44 8.875,43.125 8,42.25 8,41 V 19.3 Q 8,18.05 8.875,17.175 9.75,16.3 11,16.3 h 3.5 V 11.5 Q 14.5,7.55 17.275,4.775 20.05,2 24,2 27.95,2 30.725,4.775 33.5,7.55 33.5,11.5 v 4.8 H 37 q 1.25,0 2.125,0.875 Q 40,18.05 40,19.3 V 41 q 0,1.25 -0.875,2.125 Q 38.25,44 37,44 Z M 24,34 q 1.6,0 2.725,-1.1 1.125,-1.1 1.125,-2.65 0,-1.5 -1.125,-2.725 Q 25.6,26.3 24,26.3 q -1.6,0 -2.725,1.225 -1.125,1.225 -1.125,2.725 0,1.55 1.125,2.65 Q 22.4,34 24,34 Z M 17.5,16.3 h 13 V 11.5 Q 30.5,8.8 28.6,6.9 26.7,5 24,5 21.3,5 19.4,6.9 17.5,8.8 17.5,11.5 Z"
     id="path83"
     style="fill:#e85b21;fill-opacity:1" />
</svg>
