<?xml version="1.0" encoding="UTF-8" standalone="no"?>
<!-- Created with Inkscape (http://www.inkscape.org/) -->

<svg
   width="152.14175mm"
   height="106.34597mm"
   viewBox="0 0 152.14175 106.34597"
   version="1.1"
   id="svg243"
   xmlns="http://www.w3.org/2000/svg"
   xmlns:svg="http://www.w3.org/2000/svg">
  <defs
     id="defs240">
    <clipPath
       id="id4">
      <path
         d="M 82,269 H 514.14844 V 571 H 82 Z m 0,0"
         clip-rule="nonzero"
         id="path45" />
    </clipPath>
  </defs>
  <g
     id="layer1"
     transform="translate(-34.48317,-84.01621)">
    <g
       clip-path="url(#id4)"
       id="g64"
       transform="matrix(0.35246366,0,0,0.35246366,5.4062959,-10.8896)"
       style="fill:#ffffff">
      <path
         fill="#ffffff"
         d="m 104.37109,269.26562 c -0.71093,-0.008 -1.42187,0.0156 -2.13281,0.0781 -0.71094,0.0586 -1.41797,0.15625 -2.11719,0.28516 -0.699215,0.1289 -1.394528,0.29687 -2.078121,0.49218 -0.683594,0.19922 -1.355469,0.4336 -2.019531,0.69922 -0.660157,0.26563 -1.308594,0.5625 -1.9375,0.89063 -0.632813,0.33203 -1.246094,0.6914 -1.84375,1.08203 -0.597657,0.39062 -1.171876,0.80859 -1.726563,1.25781 -0.554687,0.44531 -1.085937,0.91797 -1.59375,1.42188 -0.507813,0.5 -0.988281,1.02343 -1.445313,1.57031 -0.453124,0.54687 -0.882812,1.11719 -1.28125,1.70703 -0.398437,0.58984 -0.765624,1.19922 -1.105468,1.82422 -0.339844,0.6289 -0.644532,1.26953 -0.921875,1.92578 -0.273438,0.65625 -0.515625,1.32812 -0.726563,2.00781 -0.207031,0.67969 -0.382812,1.3711 -0.523437,2.07031 -0.140625,0.69532 -0.246094,1.39844 -0.316407,2.10938 -0.07031,0.70703 -0.105468,1.41797 -0.105468,2.13281 0,0.71094 0.03516,1.42188 0.105468,2.12891 0.07031,0.71094 0.175782,1.41406 0.316407,2.11328 0.140625,0.69531 0.316406,1.38672 0.523437,2.06641 0.210938,0.68359 0.453125,1.35156 0.726563,2.00781 0.277343,0.65625 0.582031,1.30078 0.921875,1.92578 0.339844,0.625 0.707031,1.23437 1.105468,1.82422 0.398438,0.58984 0.828126,1.16015 1.28125,1.70703 0.457032,0.54687 0.9375,1.07422 1.445313,1.57422 0.507813,0.5 1.039063,0.97265 1.59375,1.41797 0.554687,0.44922 1.128906,0.86718 1.726563,1.25781 0.597656,0.39062 1.210937,0.75 1.84375,1.08203 0.628906,0.32813 1.277343,0.625 1.9375,0.89063 0.664062,0.26562 1.335937,0.5 2.019531,0.69921 0.683593,0.19922 1.378906,0.36329 2.078121,0.49219 0.69922,0.12891 1.40625,0.22656 2.11719,0.28516 0.71094,0.0625 1.42188,0.0859 2.13281,0.0781 h 388.20703 c 0.71485,0.008 1.42579,-0.0156 2.13672,-0.0781 0.71094,-0.0586 1.41407,-0.15625 2.11719,-0.28516 0.69922,-0.1289 1.39063,-0.29297 2.07813,-0.49219 0.68359,-0.19921 1.35546,-0.43359 2.01562,-0.69921 0.66406,-0.26563 1.30859,-0.5625 1.94141,-0.89063 0.63281,-0.33203 1.24609,-0.69141 1.84375,-1.08203 0.59375,-0.39063 1.16797,-0.80859 1.72265,-1.25781 0.55469,-0.44532 1.08594,-0.91797 1.59375,-1.41797 0.50782,-0.5 0.98828,-1.02735 1.44532,-1.57422 0.45703,-0.54688 0.88281,-1.11719 1.28125,-1.70703 0.40234,-0.58985 0.76953,-1.19922 1.10937,-1.82422 0.33594,-0.625 0.64453,-1.26953 0.91797,-1.92578 0.27734,-0.65625 0.51953,-1.32422 0.72656,-2.00781 0.21094,-0.67969 0.38281,-1.3711 0.52344,-2.06641 0.14062,-0.69922 0.24609,-1.40234 0.31641,-2.11328 0.0703,-0.70703 0.10546,-1.41797 0.10546,-2.12891 0,-0.71484 -0.0352,-1.42578 -0.10546,-2.13281 -0.0703,-0.71094 -0.17579,-1.41406 -0.31641,-2.10938 -0.14063,-0.69921 -0.3125,-1.39062 -0.52344,-2.07031 -0.20703,-0.67969 -0.44922,-1.35156 -0.72656,-2.00781 -0.27344,-0.65625 -0.58203,-1.29688 -0.91797,-1.92578 -0.33984,-0.625 -0.70703,-1.23438 -1.10937,-1.82422 -0.39844,-0.58984 -0.82422,-1.16016 -1.28125,-1.70703 -0.45313,-0.54688 -0.9375,-1.07031 -1.44532,-1.57031 -0.50781,-0.50391 -1.03906,-0.97657 -1.59375,-1.42188 -0.55468,-0.44922 -1.1289,-0.86719 -1.72265,-1.25781 -0.59766,-0.39063 -1.21094,-0.75 -1.84375,-1.08203 -0.63282,-0.32813 -1.27735,-0.625 -1.94141,-0.89063 -0.66016,-0.26562 -1.33203,-0.5 -2.01562,-0.69922 -0.6875,-0.19531 -1.37891,-0.36328 -2.07813,-0.49218 -0.70312,-0.12891 -1.40625,-0.22657 -2.11719,-0.28516 -0.71093,-0.0625 -1.42187,-0.0859 -2.13672,-0.0781 z m 0,129.3086 c -0.71093,-0.0117 -1.42187,0.0156 -2.13281,0.0742 -0.71094,0.0625 -1.41797,0.15625 -2.11719,0.28906 -0.699215,0.12891 -1.394528,0.29297 -2.078121,0.49219 -0.683594,0.19922 -1.355469,0.42968 -2.019531,0.69531 -0.660157,0.26562 -1.308594,0.56641 -1.9375,0.89453 -0.632813,0.32813 -1.246094,0.69141 -1.84375,1.08203 -0.597657,0.38672 -1.171876,0.8086 -1.726563,1.25391 -0.554687,0.44922 -1.085937,0.92187 -1.59375,1.42187 -0.507813,0.5 -0.988281,1.02344 -1.441406,1.57422 -0.457031,0.54688 -0.882813,1.11328 -1.285157,1.70313 -0.398437,0.59375 -0.765624,1.19922 -1.105468,1.82812 -0.339844,0.625 -0.644532,1.26563 -0.921875,1.92578 -0.273438,0.65625 -0.515625,1.32422 -0.726563,2.00391 -0.207031,0.68359 -0.382812,1.37109 -0.523437,2.07031 -0.136719,0.69922 -0.242188,1.40235 -0.3125,2.10938 -0.07422,0.71093 -0.109375,1.42187 -0.109375,2.13281 0,0.71094 0.03516,1.42187 0.109375,2.13281 0.07031,0.70703 0.175781,1.41016 0.3125,2.10938 0.140625,0.69922 0.316406,1.38672 0.523437,2.07031 0.210938,0.67969 0.453125,1.34766 0.726563,2.00781 0.277343,0.65625 0.582031,1.29688 0.921875,1.92578 0.339844,0.625 0.707031,1.23438 1.105468,1.82422 0.402344,0.58985 0.828126,1.16016 1.285157,1.70703 0.453125,0.54688 0.933593,1.07032 1.441406,1.57032 0.507813,0.5 1.039063,0.97265 1.59375,1.42187 0.554687,0.44922 1.128906,0.86719 1.726563,1.25781 0.597656,0.39063 1.210937,0.75 1.84375,1.07813 0.628906,0.33203 1.277343,0.6289 1.9375,0.89453 0.664062,0.26562 1.335937,0.49609 2.019531,0.69531 0.683593,0.19922 1.378906,0.36328 2.078121,0.4961 0.69922,0.1289 1.40625,0.22265 2.11719,0.28515 0.71094,0.0586 1.42188,0.0859 2.13281,0.0742 h 388.20703 c 0.71485,0.0117 1.42579,-0.0156 2.13672,-0.0742 0.71094,-0.0625 1.41407,-0.15625 2.11719,-0.28515 0.69922,-0.13282 1.39063,-0.29688 2.07813,-0.4961 0.68359,-0.19922 1.35546,-0.42969 2.01562,-0.69531 0.66406,-0.26563 1.30859,-0.5625 1.94141,-0.89453 0.63281,-0.32813 1.24609,-0.6875 1.83984,-1.07813 0.59766,-0.39062 1.17188,-0.80859 1.72656,-1.25781 0.55469,-0.44922 1.08594,-0.92187 1.59375,-1.42187 0.50782,-0.5 0.98828,-1.02344 1.44532,-1.57032 0.45703,-0.54687 0.88281,-1.11718 1.28125,-1.70703 0.39843,-0.58984 0.76953,-1.19922 1.10937,-1.82422 0.33594,-0.6289 0.64453,-1.26953 0.91797,-1.92578 0.27734,-0.66015 0.51953,-1.32812 0.72656,-2.00781 0.21094,-0.68359 0.38281,-1.37109 0.52344,-2.07031 0.14062,-0.69922 0.24609,-1.40235 0.31641,-2.10938 0.0703,-0.71094 0.10546,-1.42187 0.10546,-2.13281 0,-0.71094 -0.0352,-1.42188 -0.10546,-2.13281 -0.0703,-0.70703 -0.17579,-1.41016 -0.31641,-2.10938 -0.14063,-0.69922 -0.3125,-1.38672 -0.52344,-2.07031 -0.20703,-0.67969 -0.44922,-1.34766 -0.72656,-2.00391 -0.27344,-0.66015 -0.58203,-1.30078 -0.91797,-1.92578 -0.33984,-0.6289 -0.71094,-1.23437 -1.10937,-1.82812 -0.39844,-0.58985 -0.82422,-1.15625 -1.28125,-1.70313 -0.45704,-0.55078 -0.9375,-1.07422 -1.44532,-1.57422 -0.50781,-0.5 -1.03906,-0.97265 -1.59375,-1.42187 -0.55468,-0.44531 -1.1289,-0.86719 -1.72656,-1.25391 -0.59375,-0.39062 -1.20703,-0.7539 -1.83984,-1.08203 -0.63282,-0.32812 -1.27735,-0.62891 -1.94141,-0.89453 -0.66016,-0.26563 -1.33203,-0.49609 -2.01562,-0.69531 -0.6875,-0.19922 -1.37891,-0.36328 -2.07813,-0.49219 -0.70312,-0.13281 -1.40625,-0.22656 -2.11719,-0.28906 -0.71093,-0.0586 -1.42187,-0.0859 -2.13672,-0.0742 z m 0,129.30859 c -0.71093,-0.0117 -1.42187,0.0117 -2.13281,0.0742 -0.71094,0.0586 -1.41797,0.15625 -2.11719,0.28516 -0.699215,0.13281 -1.394528,0.29687 -2.078121,0.49609 -0.683594,0.19922 -1.355469,0.42969 -2.019531,0.69531 -0.660157,0.26563 -1.308594,0.5625 -1.9375,0.89453 -0.632813,0.32813 -1.246094,0.6875 -1.84375,1.07813 -0.597657,0.39062 -1.171876,0.80859 -1.726563,1.25781 -0.554687,0.44531 -1.085937,0.92188 -1.59375,1.42188 -0.507813,0.5 -0.988281,1.02343 -1.445313,1.57031 -0.453124,0.54687 -0.882812,1.11719 -1.28125,1.70703 -0.398437,0.58984 -0.765624,1.19922 -1.105468,1.82422 -0.339844,0.62891 -0.644532,1.26953 -0.921875,1.92578 -0.273438,0.65625 -0.515625,1.32813 -0.726563,2.00781 -0.207031,0.67969 -0.382812,1.3711 -0.523437,2.07032 -0.140625,0.69531 -0.246094,1.40234 -0.316407,2.10937 -0.07031,0.71094 -0.105468,1.41797 -0.105468,2.13281 0,0.71094 0.03516,1.42188 0.105468,2.12891 0.07031,0.71094 0.175782,1.41406 0.316407,2.11328 0.140625,0.69922 0.316406,1.38672 0.523437,2.06641 0.210938,0.68359 0.453125,1.35156 0.726563,2.00781 0.277343,0.65625 0.582031,1.30078 0.921875,1.92578 0.339844,0.62891 0.707031,1.23438 1.105468,1.82422 0.398438,0.59375 0.828126,1.16016 1.28125,1.70703 0.457032,0.55078 0.9375,1.07422 1.445313,1.57422 0.507813,0.5 1.039063,0.97266 1.59375,1.42187 0.554687,0.44532 1.128906,0.86329 1.726563,1.25391 0.597656,0.39063 1.210937,0.75391 1.84375,1.08203 0.628906,0.32813 1.277343,0.62891 1.9375,0.89453 0.664062,0.26172 1.335937,0.4961 2.019531,0.69532 0.683593,0.19921 1.378906,0.36328 2.078121,0.49218 0.69922,0.13282 1.40625,0.22657 2.11719,0.28907 0.71094,0.0586 1.42188,0.082 2.13281,0.0742 h 388.20703 c 0.71485,0.008 1.42579,-0.0156 2.13672,-0.0742 0.71094,-0.0625 1.41407,-0.15625 2.11719,-0.28907 0.69922,-0.1289 1.39063,-0.29297 2.07813,-0.49218 0.68359,-0.19922 1.35546,-0.4336 2.01562,-0.69532 0.66406,-0.26562 1.30859,-0.5664 1.94141,-0.89453 0.63281,-0.32812 1.24609,-0.6914 1.84375,-1.08203 0.59375,-0.39062 1.17187,-0.80859 1.72265,-1.25391 0.55469,-0.44921 1.08594,-0.92187 1.59375,-1.42187 0.50782,-0.5 0.99219,-1.02344 1.44532,-1.57422 0.45703,-0.54687 0.88281,-1.11328 1.28125,-1.70703 0.40234,-0.58984 0.76953,-1.19531 1.10937,-1.82422 0.33984,-0.625 0.64453,-1.26953 0.92188,-1.92578 0.27343,-0.65625 0.51562,-1.32422 0.72265,-2.00781 0.21094,-0.67969 0.38281,-1.36719 0.52344,-2.06641 0.14062,-0.69922 0.24609,-1.40234 0.31641,-2.11328 0.0703,-0.70703 0.10546,-1.41797 0.10546,-2.12891 0,-0.71484 -0.0352,-1.42187 -0.10546,-2.13281 -0.0703,-0.70703 -0.17579,-1.41406 -0.31641,-2.10937 -0.14063,-0.69922 -0.3125,-1.39063 -0.52344,-2.07032 -0.20703,-0.67968 -0.44922,-1.35156 -0.72265,-2.00781 -0.27735,-0.65625 -0.58204,-1.29687 -0.92188,-1.92578 -0.33984,-0.625 -0.70703,-1.23438 -1.10937,-1.82422 -0.39844,-0.58984 -0.82422,-1.16016 -1.28125,-1.70703 -0.45313,-0.54688 -0.9375,-1.07031 -1.44532,-1.57031 -0.50781,-0.5 -1.03906,-0.97657 -1.59375,-1.42188 -0.55468,-0.44922 -1.1289,-0.86719 -1.72265,-1.25781 -0.59766,-0.39063 -1.21094,-0.75 -1.84375,-1.07813 -0.63282,-0.33203 -1.27735,-0.6289 -1.94141,-0.89453 -0.66016,-0.26562 -1.33203,-0.49609 -2.01562,-0.69531 -0.6875,-0.19922 -1.37891,-0.36328 -2.07813,-0.49609 -0.70312,-0.12891 -1.40625,-0.22657 -2.11719,-0.28516 -0.71093,-0.0625 -1.42187,-0.0859 -2.13672,-0.0742 z m 0,0"
         fill-opacity="1"
         fill-rule="nonzero"
         id="path62"
         style="fill:#ffffff" />
    </g>
  </g>
</svg>
